<?xml version="1.0" standalone="no"?>
<!DOCTYPE svg PUBLIC "-//W3C//DTD SVG 20010904//EN"
 "http://www.w3.org/TR/2001/REC-SVG-20010904/DTD/svg10.dtd">
<svg version="1.0" xmlns="http://www.w3.org/2000/svg"
 width="600.000000pt" height="299.000000pt" viewBox="0 0 600.000000 299.000000"
 preserveAspectRatio="xMidYMid meet">
<metadata>
Created by potrace 1.16, written by Peter Selinger 2001-2019
</metadata>
<g transform="translate(0.000000,299.000000) scale(0.100000,-0.100000)"
fill="#000000" stroke="none">
<path d="M649 2868 c-28 -26 -54 -64 -67 -97 l-22 -53 20 -25 c11 -14 20 -30
20 -35 0 -6 -9 0 -19 13 -11 13 -21 22 -23 19 -43 -57 -62 -87 -79 -127 -25
-59 -63 -100 -100 -108 -16 -4 -31 -10 -34 -15 -5 -8 16 -3 139 32 l68 20 20
-20 c13 -12 18 -27 14 -37 -5 -13 -15 -15 -58 -11 -41 5 -58 2 -86 -16 l-34
-21 29 -12 c34 -15 82 -89 90 -140 6 -38 51 -81 213 -207 129 -100 160 -141
117 -157 -21 -8 -21 -8 -2 -14 11 -3 36 -9 55 -12 53 -11 192 -102 296 -195
58 -52 178 -140 191 -140 5 0 55 -34 112 -75 57 -41 108 -75 112 -75 5 0 18
-20 29 -44 19 -40 25 -44 73 -53 55 -11 147 -10 165 1 17 10 38 -50 51 -145
17 -129 19 -169 9 -238 -10 -79 0 -95 51 -87 20 3 52 6 72 6 20 0 41 5 47 12
8 10 -2 13 -50 14 -33 1 -65 7 -71 13 -8 8 -13 58 -13 139 -1 70 0 112 3 95 7
-55 20 -37 25 38 3 39 11 76 17 82 9 9 440 14 1759 20 1116 5 1766 11 1798 18
28 5 73 24 100 42 l49 31 -85 7 c-47 4 -88 5 -92 2 -5 -2 -8 -1 -8 4 0 4 -783
6 -1740 5 -1302 -3 -1740 -1 -1740 8 0 6 -4 8 -10 5 -5 -3 -28 7 -51 22 -35
23 -38 28 -23 34 11 3 27 3 36 -2 15 -8 16 -7 2 18 -10 21 -14 69 -14 195 l0
168 26 16 c14 9 39 17 57 16 23 -1 27 2 17 9 -8 5 -34 6 -57 3 -37 -5 -43 -3
-59 20 l-17 27 -18 -30 c-15 -25 -16 -36 -7 -62 18 -53 -6 -261 -42 -354 -9
-23 -13 -26 -20 -15 -7 11 -10 8 -10 -13 0 -16 -4 -26 -10 -22 -5 3 -10 19
-10 34 0 20 -7 31 -24 39 -28 13 -66 5 -66 -13 0 -7 -14 -18 -31 -24 -33 -11
-55 -5 -79 23 -7 9 -21 16 -31 16 -10 0 -34 14 -54 31 -37 33 -47 30 -18 -5
23 -27 -17 7 -110 92 -37 34 -72 62 -79 62 -15 0 -95 86 -103 111 -9 27 2 36
25 21 26 -16 25 -7 -1 29 -19 27 -37 109 -24 109 20 0 89 -46 143 -95 43 -39
77 -83 109 -141 26 -46 68 -105 95 -132 26 -26 48 -54 48 -63 0 -20 27 -33 36
-18 3 6 22 18 41 26 45 18 38 26 -10 12 -36 -10 -40 -8 -85 31 -55 49 -75 76
-107 148 -30 65 -107 155 -186 217 -32 25 -59 54 -59 64 0 9 -11 32 -25 51
-30 40 -20 60 20 42 34 -15 35 -15 35 6 0 11 8 18 21 19 21 2 59 29 57 42 -4
33 5 51 32 63 17 7 30 16 30 20 0 5 7 8 15 8 7 0 18 6 22 13 4 7 20 20 36 30
15 10 27 24 27 32 0 8 9 15 20 15 11 0 20 5 20 10 0 6 5 10 11 10 6 0 22 9 36
20 14 11 33 20 42 20 9 0 32 17 51 36 19 20 51 44 70 54 51 26 67 49 69 102 2
39 -2 49 -19 58 -12 6 -26 9 -33 6 -7 -2 -4 -5 6 -5 18 -1 25 -31 6 -31 -6 0
-7 -5 -2 -12 4 -7 6 -24 4 -38 -6 -51 -11 -53 -201 -45 -166 6 -320 26 -475
61 -38 9 -86 19 -105 24 -64 14 -163 51 -188 71 -14 10 -33 19 -43 19 -32 0
-21 -16 18 -26 46 -12 56 -34 14 -34 -16 0 -32 -4 -35 -8 -7 -12 -64 -13 -71
-1 -4 5 -26 9 -51 9 l-45 0 7 37 c9 50 26 66 57 54 14 -6 28 -15 32 -20 8 -15
37 -14 58 2 16 11 15 16 -9 61 -21 40 -24 52 -15 75 17 42 1 85 -34 89 -33 4
-56 -18 -48 -47 3 -10 -1 -22 -8 -27 -9 -5 -11 -2 -6 9 3 10 2 17 -2 17 -5 0
-12 -7 -15 -16 -9 -22 -8 -24 9 -24 21 0 19 -3 -16 -41 -17 -19 -35 -43 -40
-54 -19 -47 -8 46 12 99 31 85 47 99 105 98 60 -1 137 -17 161 -33 10 -6 39
-38 65 -69 57 -70 143 -129 248 -169 109 -43 145 -39 40 4 -139 57 -185 83
-236 137 -130 136 -151 148 -256 148 -73 0 -74 -1 -119 -42z m121 -108 c0 -5
-4 -10 -10 -10 -5 0 -10 5 -10 10 0 6 5 10 10 10 6 0 10 -4 10 -10z m160 -239
c0 -18 -22 -71 -30 -71 -12 0 -70 34 -70 41 0 4 10 10 23 14 12 5 31 11 42 15
28 11 35 11 35 1z m-215 -15 c25 -3 33 -21 18 -38 -23 -26 -40 -22 -58 12 -20
39 -19 43 8 35 12 -4 26 -8 32 -9z m95 -27 c0 -26 2 -29 14 -20 26 22 28 -8 2
-35 l-24 -27 -31 26 c-18 15 -27 28 -21 32 6 4 18 1 26 -6 13 -11 15 -10 14 2
-5 30 0 59 10 59 6 0 10 -14 10 -31z m231 -67 c51 -36 54 -40 53 -80 0 -23 -4
-45 -8 -49 -3 -4 -23 9 -44 29 -20 20 -47 39 -58 42 -12 4 -29 21 -37 39 -15
30 -15 32 6 44 30 17 27 18 88 -25z m-211 -82 c0 -5 -15 -10 -32 -9 -28 0 -30
2 -13 9 28 12 45 12 45 0z m10 -56 c0 -11 -8 -14 -32 -12 -46 4 -49 28 -4 28
26 0 36 -4 36 -16z m147 -29 c-3 -18 -24 -67 -47 -109 -46 -84 -64 -93 -105
-51 -22 21 -24 27 -13 52 7 15 27 48 45 72 18 24 33 47 33 51 0 13 43 27 68
22 21 -4 24 -9 19 -37z m190 -188 c53 -63 83 -134 62 -148 -8 -5 -19 -9 -24
-9 -18 0 -81 72 -109 124 -23 44 -24 52 -11 66 8 9 15 25 16 36 0 19 0 19 12
0 7 -10 31 -41 54 -69z m-174 -45 c9 -9 29 -36 44 -59 15 -23 56 -67 91 -99
46 -41 72 -75 94 -122 35 -73 82 -132 107 -132 26 0 250 -185 238 -196 -5 -5
-110 75 -115 88 -2 5 -22 18 -43 29 -35 17 -154 102 -169 119 -24 28 -175 150
-229 185 l-69 44 0 73 c-1 39 1 75 4 80 9 13 30 9 47 -10z m997 -441 c0 -128
-1 -139 -21 -157 l-22 -19 6 60 c4 33 9 106 13 162 4 57 10 100 15 97 5 -3 9
-67 9 -143z m-270 -267 c0 -13 -4 -24 -9 -24 -11 0 -22 40 -15 52 9 15 24 -2
24 -28z m48 -2 c4 -37 -13 -43 -22 -9 -9 35 -7 49 7 45 6 -3 13 -19 15 -36z
m50 0 c4 -37 -13 -43 -22 -9 -9 35 -7 49 7 45 6 -3 13 -19 15 -36z m42 2 c0
-13 -4 -24 -10 -24 -5 0 -10 14 -10 31 0 17 4 28 10 24 6 -3 10 -17 10 -31z
m190 6 c0 -5 -5 -10 -11 -10 -5 0 -7 5 -4 10 3 6 8 10 11 10 2 0 4 -4 4 -10z
m2777 -6 c-3 -3 -12 -4 -19 -1 -8 3 -5 6 6 6 11 1 17 -2 13 -5z"/>
<path d="M971 2694 c0 -11 3 -14 6 -6 3 7 2 16 -1 19 -3 4 -6 -2 -5 -13z"/>
<path d="M1358 2583 c6 -2 18 -2 25 0 6 3 1 5 -13 5 -14 0 -19 -2 -12 -5z"/>
<path d="M1416 2582 c-8 -13 86 -20 134 -11 29 6 25 7 -25 8 -33 1 -70 4 -81
7 -12 3 -24 1 -28 -4z"/>
<path d="M288 2407 c-29 -26 -77 -116 -103 -195 -16 -51 -16 -54 6 -110 13
-31 27 -61 32 -67 14 -16 -4 68 -19 90 -17 23 -18 81 -3 90 5 4 15 18 20 32 6
16 14 23 24 19 11 -4 15 2 15 23 0 39 19 92 43 119 26 28 19 28 -15 -1z"/>
<path d="M315 2399 c-11 -17 1 -21 15 -4 8 9 8 15 2 15 -6 0 -14 -5 -17 -11z"/>
<path d="M300 2298 c0 -13 5 -30 10 -38 7 -11 10 -5 10 23 0 20 -4 37 -10 37
-5 0 -10 -10 -10 -22z"/>
<path d="M220 2165 c0 -27 31 -93 46 -99 9 -4 13 -13 10 -24 -4 -13 2 -21 24
-29 31 -12 41 -33 15 -33 -18 0 -17 3 -6 -38 15 -50 -9 -36 -37 22 -13 26 -26
46 -29 43 -10 -11 79 -170 111 -197 10 -7 29 -37 43 -64 14 -28 37 -64 50 -80
19 -23 23 -36 19 -62 -4 -17 -2 -52 3 -76 14 -61 6 -87 -27 -85 -23 2 -31 -6
-51 -47 -24 -47 -25 -58 -23 -210 2 -180 24 -381 51 -471 51 -165 54 -184 36
-231 -16 -43 -16 -45 9 -100 l26 -56 117 5 c65 3 119 6 120 6 1 1 2 45 2 98 0
71 -3 103 -15 120 -13 21 -13 25 2 40 13 14 15 30 9 97 -3 45 -11 83 -16 84
-5 2 -9 13 -9 25 0 12 4 18 8 12 4 -5 14 -10 22 -10 11 0 16 -13 18 -50 6
-114 29 -93 31 28 1 45 5 85 11 91 5 5 20 -4 37 -24 54 -64 54 -64 37 -114
-19 -56 -38 -61 -28 -8 3 20 6 39 6 42 0 64 -14 61 -31 -7 -11 -42 -10 -49 10
-76 17 -24 20 -38 15 -73 -6 -46 -33 -110 -43 -101 -3 3 0 21 5 39 14 46 23
128 14 128 -9 0 -32 -95 -32 -131 0 -27 27 -89 38 -89 10 0 54 169 47 179 -3
5 2 28 10 51 8 23 15 59 15 80 0 130 41 143 146 47 32 -28 78 -70 102 -92 25
-22 68 -60 96 -86 85 -76 96 -80 189 -77 76 3 82 5 85 25 2 13 -1 23 -7 23 -6
0 -11 11 -11 24 0 14 -7 32 -16 40 -8 9 -13 19 -10 24 2 4 1 14 -4 22 -7 11 1
25 26 51 31 32 34 40 24 56 -10 16 -11 16 -6 0 3 -11 0 -17 -9 -17 -8 0 -15 6
-16 13 -3 58 -11 86 -41 130 -19 29 -41 65 -48 80 -13 26 -12 30 3 38 15 9 15
15 -8 76 -23 64 -49 103 -60 91 -3 -3 6 -23 20 -43 14 -21 23 -41 19 -44 -6
-6 -30 22 -37 43 -3 7 -9 7 -20 -3 -15 -12 -16 -10 -11 18 4 18 2 37 -5 45 -9
10 -8 15 1 18 12 4 24 4 111 0 20 -1 37 -7 37 -12 0 -6 -11 -8 -26 -4 -24 6
-25 5 -12 -15 7 -11 16 -21 20 -21 5 0 8 -24 8 -52 0 -76 13 -87 31 -28 13 42
13 50 2 50 -10 0 -13 12 -12 45 2 31 7 45 17 45 10 0 13 -10 10 -40 -3 -37 -2
-40 22 -40 14 0 30 4 36 9 5 5 20 11 34 13 19 2 26 10 28 31 2 15 7 27 12 27
11 0 36 -40 44 -74 13 -55 35 -98 46 -91 8 5 8 11 1 19 -6 7 -7 17 -3 21 4 5
2 5 -4 2 -13 -8 -24 14 -24 48 0 12 -12 43 -26 69 -40 72 -58 74 -59 6 0 -22
-4 -39 -10 -37 -5 1 -10 17 -10 35 0 22 -6 37 -18 43 -13 7 -17 7 -15 -2 2 -8
-13 -13 -40 -15 -39 -3 -47 0 -83 35 -38 38 -43 49 -40 82 2 18 -43 59 -64 59
-6 0 -20 8 -29 19 -9 10 -45 31 -79 46 -51 23 -58 29 -42 36 11 4 18 8 15 8
-31 4 -177 76 -195 95 -13 15 -31 26 -39 26 -9 0 -27 17 -40 38 -13 20 -34 47
-47 58 -42 39 -122 84 -147 84 -28 0 -139 58 -146 77 -5 13 28 2 70 -24 20
-13 34 -9 34 9 0 4 -4 8 -10 8 -5 0 -18 8 -28 18 -11 9 -32 26 -47 37 -15 11
-42 30 -58 43 -17 12 -42 22 -56 21 -24 0 -24 -1 -6 -9 18 -7 18 -9 3 -15 -9
-4 -42 0 -72 9 -59 17 -100 57 -91 86 4 13 -2 19 -26 24 -45 9 -49 8 -49 -9z
m215 -276 c11 -17 0 -20 -21 -4 -17 13 -17 14 -2 15 9 0 20 -5 23 -11z m73
-16 c17 -4 22 -11 19 -24 -6 -23 9 -35 17 -14 11 30 59 5 68 -35 4 -19 34 -42
72 -55 32 -11 84 -70 91 -102 4 -25 -7 -36 -56 -50 -32 -9 -37 -8 -50 11 -7
12 -14 39 -14 62 -1 51 -32 90 -98 124 -46 23 -87 61 -87 81 0 11 7 11 38 2z
m202 -33 c12 -8 11 -10 -7 -10 -13 0 -23 5 -23 10 0 13 11 13 30 0z m-240 -20
c0 -5 -4 -10 -10 -10 -5 0 -10 5 -10 10 0 6 5 10 10 10 6 0 10 -4 10 -10z
m127 -202 c-3 -8 -6 -5 -6 6 -1 11 2 17 5 13 3 -3 4 -12 1 -19z m420 -19 c87
-40 248 -121 290 -145 20 -12 33 -27 33 -39 0 -12 5 -26 12 -33 21 -21 -13
-43 -70 -44 -29 -1 -54 0 -56 3 -1 2 -36 52 -76 112 -40 59 -78 107 -86 107
-8 0 -19 -9 -26 -20 -18 -28 -22 -26 -43 20 -10 22 -21 40 -25 40 -3 0 -15 7
-26 15 -32 24 2 17 73 -16z m-382 -20 c4 -11 4 -23 0 -27 -7 -7 -25 17 -25 36
0 20 18 14 25 -9z m-55 -34 c10 -13 9 -15 -9 -15 -12 0 -21 6 -21 15 0 8 4 15
9 15 5 0 14 -7 21 -15z m229 -14 c30 -30 12 -83 -31 -94 -17 -5 -31 4 -60 34
-21 22 -38 49 -38 59 0 17 7 20 55 20 41 0 60 -5 74 -19z m111 -2 c15 -26 9
-64 -10 -64 -14 0 -33 62 -24 77 9 14 23 9 34 -13z m157 -21 c-3 -8 -6 -5 -6
6 -1 11 2 17 5 13 3 -3 4 -12 1 -19z m-407 -55 c0 -19 -14 -16 -34 6 -24 27
-11 48 15 25 10 -9 19 -23 19 -31z m-140 -43 c8 -5 11 -10 5 -10 -5 0 -21 10
-35 21 -24 20 -5 13 30 -11z m100 -75 c11 -13 10 -14 -4 -9 -9 3 -16 10 -16
15 0 13 6 11 20 -6z m370 11 c0 -3 -4 -8 -10 -11 -5 -3 -10 -1 -10 4 0 6 5 11
10 11 6 0 10 -2 10 -4z m50 -20 c0 -8 -4 -17 -10 -21 -5 -3 -7 -12 -4 -20 4
-8 -1 -18 -10 -21 -22 -8 -32 2 -18 19 7 8 7 18 2 27 -5 8 -6 18 -4 22 9 14
44 9 44 -6z m480 -71 c0 -24 -5 -35 -15 -35 -15 0 -20 26 -9 54 11 28 24 17
24 -19z m-810 -146 c0 -24 -4 -38 -10 -34 -5 3 -9 24 -8 45 2 51 18 41 18 -11z
m-194 26 c18 -13 18 -14 -4 -8 -12 3 -25 9 -28 14 -8 14 10 11 32 -6z m786
-64 c14 -38 -23 -21 -39 18 l-14 34 22 -14 c12 -9 26 -25 31 -38z m88 -201 c5
-14 19 -40 30 -59 16 -26 18 -36 9 -47 -10 -12 -15 -7 -31 28 -11 24 -28 67
-39 97 -10 30 -24 58 -30 62 -7 4 -9 14 -4 25 6 16 12 10 31 -31 13 -27 28
-61 34 -75z m-566 43 c10 -24 -2 -29 -19 -7 -8 10 -15 22 -15 26 0 13 28 -3
34 -19z m46 -61 c0 -24 -2 -25 -15 -11 -9 9 -13 23 -9 32 9 24 24 11 24 -21z
m-173 -204 c-2 -18 -4 -6 -4 27 0 33 2 48 4 33 2 -15 2 -42 0 -60z m-72 -8 c3
-5 -1 -10 -9 -10 -9 0 -16 5 -16 10 0 6 4 10 9 10 6 0 13 -4 16 -10z m72 -157
c-3 -10 -5 -4 -5 12 0 17 2 24 5 18 2 -7 2 -21 0 -30z m-50 -125 c-3 -8 -6 -5
-6 6 -1 11 2 17 5 13 3 -3 4 -12 1 -19z"/>
<path d="M1320 1736 c0 -4 9 -16 20 -28 11 -12 20 -17 20 -11 0 5 -9 18 -20
28 -11 10 -20 15 -20 11z"/>
<path d="M2403 1403 c-150 -2 -243 -7 -243 -13 0 -6 -3 -9 -7 -9 -27 4 -63 -3
-63 -12 0 -6 7 -9 15 -5 8 3 15 1 15 -4 0 -6 -4 -10 -10 -10 -5 0 -10 -4 -10
-10 0 -14 16 -12 33 4 11 11 17 12 26 3 9 -9 14 -9 20 2 7 11 14 10 37 -5 26
-18 28 -18 21 -1 -4 11 -2 17 8 17 8 0 15 -7 15 -15 0 -19 9 -19 32 2 17 15
19 15 32 -2 12 -16 13 -16 19 -1 4 9 14 16 24 15 11 0 13 -3 6 -6 -7 -2 -13
-9 -13 -15 0 -6 7 -7 18 -3 9 4 25 7 35 7 11 -1 15 4 10 11 -3 7 3 3 15 -7 21
-18 26 -16 23 9 -1 6 5 2 13 -8 13 -17 15 -17 24 -2 8 16 10 16 15 1 8 -20 27
-21 27 -1 0 20 9 19 33 -2 19 -17 20 -17 14 0 -6 16 -5 16 18 1 23 -15 25 -15
25 0 0 21 19 21 27 0 5 -15 8 -15 17 -2 14 18 46 31 46 18 0 -6 -5 -10 -11
-10 -5 0 -7 -4 -4 -10 4 -6 15 -4 30 6 13 9 30 14 37 11 8 -4 6 -6 -4 -6 -10
-1 -18 -5 -18 -11 0 -14 64 -12 78 2 8 8 12 9 12 1 0 -17 87 -14 104 3 18 17
38 18 54 2 10 -10 15 -10 22 2 7 11 10 11 10 2 0 -7 4 -11 10 -7 5 3 19 0 30
-7 18 -11 23 -10 36 7 14 19 16 19 28 3 16 -22 55 -23 63 -2 4 11 8 12 13 4 6
-9 14 -8 34 5 15 10 26 13 26 6 0 -6 -5 -11 -11 -11 -5 0 -8 -4 -5 -9 3 -4 16
-7 28 -6 13 1 29 3 36 4 7 0 10 6 7 11 -3 6 -2 10 4 10 5 0 13 -4 16 -10 10
-17 25 -11 18 7 -6 14 -2 13 21 -5 34 -27 52 -28 65 -4 9 14 12 15 20 3 8 -12
12 -12 24 -2 12 9 16 9 19 -1 4 -11 8 -11 20 0 11 9 18 10 23 2 10 -16 38 -12
32 4 -4 11 -1 13 11 9 9 -4 20 -11 25 -17 5 -8 11 -6 18 4 8 11 12 12 16 3 7
-19 104 -18 97 1 -4 10 2 12 20 9 14 -3 23 -9 20 -14 -11 -18 69 -9 82 9 11
13 13 14 9 1 -5 -12 1 -16 24 -16 25 0 28 3 20 14 -15 17 1 16 25 -2 26 -19
56 -19 56 0 0 8 5 15 10 15 6 0 10 -6 10 -14 0 -9 14 -15 38 -18 53 -5 75 1
68 18 -3 8 -1 14 3 14 5 0 11 -7 15 -15 8 -22 37 -19 30 3 -5 16 -5 16 9 0 8
-10 20 -18 28 -18 10 0 10 3 1 12 -7 7 -12 19 -12 27 1 11 8 7 21 -11 23 -31
63 -38 73 -13 3 8 16 14 28 14 17 -1 18 -2 6 -6 -10 -2 -18 -9 -18 -14 0 -13
34 -11 48 3 10 10 15 10 22 -1 7 -12 11 -12 25 2 20 21 29 22 21 2 -7 -18 5
-20 22 -3 9 9 12 9 12 -2 0 -9 5 -8 20 5 18 16 20 16 20 2 0 -10 5 -17 10 -17
6 0 10 7 10 15 0 9 9 15 22 15 21 0 21 0 2 -15 -19 -14 -19 -14 2 -15 12 0 27
7 34 15 7 8 18 15 24 14 7 0 6 -2 -1 -6 -30 -11 -9 -23 42 -23 46 0 55 3 55
18 1 16 1 16 14 0 17 -23 55 -23 72 0 13 16 13 16 14 0 0 -16 10 -18 73 -17
39 1 64 3 55 6 -24 6 -23 23 2 23 11 0 20 -7 20 -15 0 -11 11 -15 43 -14 23 0
36 3 30 6 -23 9 -14 20 18 21 18 0 32 -5 36 -14 8 -21 89 -19 97 2 5 14 21 15
101 12 67 -3 101 -1 113 8 9 7 13 16 9 21 -8 8 -2506 13 -3004 6z m1886 -40
c2 -2 -5 -3 -17 -3 -14 0 -22 6 -22 16 0 14 3 15 18 3 9 -7 19 -15 21 -16z
m-563 -6 c4 -4 -5 -7 -19 -7 -15 0 -27 4 -27 8 0 10 36 9 46 -1z m124 3 c0 -5
-5 -10 -11 -10 -5 0 -7 5 -4 10 3 6 8 10 11 10 2 0 4 -4 4 -10z m137 4 c-3 -3
-12 -4 -19 -1 -8 3 -5 6 6 6 11 1 17 -2 13 -5z m686 -1 c-7 -2 -19 -2 -25 0
-7 3 -2 5 12 5 14 0 19 -2 13 -5z m97 -3 c0 -5 -2 -10 -4 -10 -3 0 -8 5 -11
10 -3 6 -1 10 4 10 6 0 11 -4 11 -10z m80 0 c0 -5 -7 -10 -15 -10 -8 0 -15 5
-15 10 0 6 7 10 15 10 8 0 15 -4 15 -10z m150 0 c0 -5 -4 -10 -10 -10 -5 0
-10 5 -10 10 0 6 5 10 10 10 6 0 10 -4 10 -10z m-1823 -6 c-3 -3 -12 -4 -19
-1 -8 3 -5 6 6 6 11 1 17 -2 13 -5z"/>
<path d="M1420 1059 c0 -14 31 -81 36 -76 3 3 -4 22 -15 44 -11 21 -20 35 -21
32z"/>
<path d="M1467 950 c3 -14 12 -41 20 -60 11 -30 12 -31 8 -6 -4 16 -13 43 -20
60 -11 23 -13 25 -8 6z"/>
<path d="M1470 745 c0 -4 6 -18 14 -33 7 -15 16 -44 20 -64 4 -21 12 -40 18
-44 16 -10 3 78 -17 116 -13 26 -35 41 -35 25z"/>
<path d="M1530 743 c0 -5 5 -15 10 -23 8 -12 10 -11 10 8 0 12 -4 22 -10 22
-5 0 -10 -3 -10 -7z"/>
<path d="M1356 505 c14 -19 30 -35 35 -35 21 0 55 -112 83 -272 8 -46 65 -115
133 -162 50 -34 56 -36 138 -36 47 0 85 4 85 10 0 37 -86 269 -120 326 -23 37
-46 78 -51 92 -5 13 -19 38 -30 54 -29 40 -49 22 -51 -46 l-1 -51 -7 45 c-4
25 -8 36 -9 25 -8 -71 -21 -84 -21 -22 0 34 -4 47 -14 47 -8 0 -18 10 -21 21
-7 20 -12 21 -71 16 -35 -2 -67 -1 -69 4 -3 4 25 10 62 12 l68 3 -83 2 -83 2
27 -35z"/>
<path d="M781 464 c0 -11 3 -14 6 -6 3 7 2 16 -1 19 -3 4 -6 -2 -5 -13z"/>
<path d="M780 409 c0 -20 6 -42 14 -48 12 -10 16 -5 26 23 12 38 4 69 -11 45
-8 -12 -11 -11 -19 1 -7 11 -10 6 -10 -21z m17 -31 c-3 -8 -6 -5 -6 6 -1 11 2
17 5 13 3 -3 4 -12 1 -19z"/>
<path d="M502 268 c3 -20 8 -22 68 -19 60 2 86 14 74 33 -3 4 -37 8 -75 8 -67
0 -70 -1 -67 -22z"/>
<path d="M690 281 c0 -6 5 -13 10 -16 6 -4 8 -16 5 -28 -6 -20 -5 -20 14 3 14
18 17 28 9 37 -12 15 -38 17 -38 4z"/>
<path d="M780 240 c0 -5 5 -10 11 -10 5 0 7 5 4 10 -3 6 -8 10 -11 10 -2 0 -4
-4 -4 -10z"/>
<path d="M514 231 c-15 -15 5 -21 66 -21 67 0 95 14 48 25 -25 5 -107 2 -114
-4z"/>
<path d="M509 195 c-3 -3 -3 -25 1 -50 6 -40 4 -50 -21 -83 -47 -61 -45 -62
112 -62 139 0 140 0 134 21 -4 12 -7 55 -7 95 0 41 -4 76 -8 79 -15 9 -40 -7
-40 -25 0 -31 -18 -33 -22 -3 -3 27 -5 28 -73 31 -39 1 -73 0 -76 -3z m158
-87 c-3 -8 -6 -5 -6 6 -1 11 2 17 5 13 3 -3 4 -12 1 -19z"/>
<path d="M780 168 c0 -19 2 -20 10 -8 13 19 13 30 0 30 -5 0 -10 -10 -10 -22z"/>
</g>
</svg>
